<svg width="325" height="144" viewBox="0 0 325 144" fill="none" xmlns="http://www.w3.org/2000/svg">
<path d="M46.96 12.264H49.52C49.776 12.264 50.2027 12.6907 50.8 13.544V14.696L49.52 17.64V21.864C49.0933 21.864 48.4533 23.2293 47.6 25.96V27.624H49.776C50.8853 26.6853 52.592 26.1307 54.896 25.96L57.2 24.936H60.656L62.96 23.784H67.824L72.56 21.864H76.016L78.96 20.456H81.52C83.6533 21.736 85.36 23.4427 86.64 25.576V46.44C87.408 47.8907 87.92 49.8107 88.176 52.2C88.432 52.2 88.56 52.2853 88.56 52.456V53.224L87.92 54.12C87.92 54.376 88.0053 54.504 88.176 54.504L87.92 56.168V59.88C87.92 60.392 88.0053 60.8613 88.176 61.288C88.0053 61.6293 87.92 62.0133 87.92 62.44L88.176 63.08L87.92 63.72L88.176 64.36V65.384H88.56C88.56 65.8107 88.3467 66.024 87.92 66.024L88.56 67.688C88.1333 67.688 87.92 67.8587 87.92 68.2L88.56 69.224L87.92 70.12L88.176 70.76C88.0053 71.1867 87.92 71.528 87.92 71.784C88.3467 71.8693 88.56 72.0827 88.56 72.424V74.984L87.92 75.88V76.52L88.56 77.544L87.92 78.44L88.56 79.336V80.104L87.92 81V81.64L88.56 82.664V83.304L87.92 84.2L88.56 85.224L87.92 86.12L89.84 91.624V100.2L91.12 103.144V113.64L92.4 116.456V118.504C89.4133 126.184 87.28 130.024 86 130.024H82.16C78.4053 128.147 71.024 122.173 60.016 112.104L55.28 103.784V101.864C55.28 101.523 56.3467 100.456 58.48 98.664H67.44C71.1947 100.456 73.84 102.035 75.376 103.4L76.016 103.784H77.04V102.12L75.12 97.384V30.696H70.256L68.08 32.104H53.104L50.16 33.384H46.32L45.04 38.12C43.76 42.984 42.6933 45.9707 41.84 47.08V48.104H46.96C48.1547 48.872 49.4347 49.384 50.8 49.64C54.5547 52.456 57.84 53.864 60.656 53.864C63.3867 55.5707 64.752 56.808 64.752 57.576V62.184C63.8133 64.744 62.576 66.2373 61.04 66.664H60.4C58.0107 65.384 55.152 62.3547 51.824 57.576C49.1787 55.6133 45.9787 53.6933 42.224 51.816H41.584C39.4507 54.5467 37.8293 58.0027 36.72 62.184C32.0267 71.5707 29.552 76.264 29.296 76.264L27.12 78.184H25.2C24.6027 78.0133 23.536 76.6907 22 74.216V72.424C28.144 61.2453 33.4773 49.384 38 36.84V34.664H37.104L32.752 36.456H27.376L25.2 37.864H18.16C17.8187 37.864 17.3493 37.3947 16.752 36.456V35.816C17.52 34.792 18.6293 33.9813 20.08 33.384H24.816C26.608 32.9573 27.8027 32.5307 28.4 32.104H33.776C34.8853 31.1653 36.592 30.6107 38.896 30.44C40.0907 29.5013 40.7307 28.0933 40.816 26.216C41.9253 23.4 43.12 19.4747 44.4 14.44L46.96 12.264ZM10.48 29.928L13.04 32.744V39.784L11.76 42.6V62.696L10.48 65.64V115.048L11.76 117.864V124.904C10.0533 128.829 8.34667 130.963 6.64 131.304C4.42133 130.536 2.288 127.976 0.240001 123.624V117.224L1.52 115.048V87.144L3.44 82.28V64.744L4.72 61.928V51.304L6 48.36V40.424L7.28 36.84V32.744C8.048 30.8667 9.11467 29.928 10.48 29.928ZM42.48 64.104H45.04C45.3813 64.104 45.808 64.5307 46.32 65.384V71.784L45.04 73.96V76.264H47.6V75.624H57.84C58.7787 76.2213 61.2107 77.0747 65.136 78.184L70.64 81C70.64 81.768 71.28 82.7067 72.56 83.816V85.864C70.768 89.704 69.0613 91.8373 67.44 92.264H66.8C65.776 92.264 63.5147 90.1307 60.016 85.864C57.2 83.816 55.4933 82.7493 54.896 82.664H52.08C50.9707 81.8107 49.264 81.256 46.96 81C46.96 80.8293 46.8747 80.744 46.704 80.744C46.3627 81.0853 45.0827 81.384 42.864 81.64C41.9253 82.5787 40.5173 84.968 38.64 88.808C33.3493 96.3173 28.8693 100.883 25.2 102.504H22.64C21.5307 101.821 20.464 100.328 19.44 98.024V96.104C26.2667 89.704 29.68 86.376 29.68 86.12C35.6533 78.0987 39.3653 71.1867 40.816 65.384L42.48 64.104ZM167.265 0.359993H170.337C171.873 0.957329 173.153 2.10933 174.177 3.81599V4.84L173.025 7.784V11.24L172.385 12.264V14.44H175.841L178.785 13.288H183.521L186.337 11.88H202.977C203.318 11.88 203.788 12.3493 204.385 13.288V18.28C202.252 22.7173 199.564 24.936 196.321 24.936C194.87 25.2773 193.889 25.6187 193.377 25.96H189.665C188.641 25.0213 186.593 23.9547 183.521 22.76L182.497 23.4L181.601 22.76H180.321L179.297 23.4H176.481L173.025 24.808H167.521C165.473 26.088 164.15 27.5813 163.553 29.288L159.457 33H158.177C157.836 33 157.452 32.5733 157.025 31.72V30.44L158.177 27.624V25.96H149.601L147.297 27.24H145.377V29.288C144.012 33.64 142.348 36.3707 140.385 37.48H139.617C139.361 37.48 138.934 37.0533 138.337 36.2V29.288H132.321L129.377 30.44H123.361L120.417 31.72H111.841L108.385 33C105.91 31.976 104.417 30.952 103.905 29.928V27.24C103.905 26.8987 104.289 26.472 105.057 25.96H115.041L117.857 24.808H122.721L125.665 23.4H129.761L131.937 22.12H134.881C138.038 21.0107 139.617 20.2427 139.617 19.816V16.104C138.849 14.4827 138.337 12.776 138.081 10.984C137.91 10.984 137.569 10.4293 137.057 9.31999V7.39999C137.057 7.14399 137.484 6.71733 138.337 6.12H140.385C142.86 7.912 144.524 10.3013 145.377 13.288V16.104C146.06 17.4693 146.785 18.4507 147.553 19.048H149.601L151.905 17.64H157.281C158.561 16.872 160.993 16.232 164.577 15.72C164.577 14.8667 165.473 12.4347 167.265 8.424V6.504L165.857 3.688V1.63999C165.857 1.384 166.326 0.957329 167.265 0.359993ZM161.377 37.48H163.297C164.662 38.1627 165.985 40.0827 167.265 43.24V47.336L168.417 50.28V53.48H172.001L174.817 52.2H177.761C179.553 51.6027 181.772 50.536 184.417 49H186.977C188.513 49.6827 189.793 50.7493 190.817 52.2C190.817 52.5413 191.03 52.968 191.457 53.48V54.12C190.262 56.424 188.129 58.344 185.057 59.88H181.857L180.961 59.24H169.697V74.6H170.721C172.94 73.064 176.865 71.3573 182.497 69.48H186.337C189.665 70.76 192.353 73.832 194.401 78.696C196.278 82.9627 197.43 86.9307 197.857 90.6C198.284 90.6853 198.497 90.8987 198.497 91.24V94.184C199.777 96.9147 200.63 99.9867 201.057 103.4C201.484 103.485 201.697 103.741 201.697 104.168V124.52C201.014 125.544 200.289 127.72 199.521 131.048C196.876 137.363 193.761 141.373 190.177 143.08H189.025C188.172 143.08 184.545 140.093 178.145 134.12C176.609 133.523 175.116 132.243 173.665 130.28C173.665 129.853 173.238 129.213 172.385 128.36V126.44C172.812 124.989 174.262 123.709 176.737 122.6H178.145C180.79 123.88 183.308 124.648 185.697 124.904C185.697 125.16 185.825 125.288 186.081 125.288H187.617C188.726 121.875 189.281 119.699 189.281 118.76L190.177 116.456V104.936L189.025 102.12V97.384L187.617 94.44V90.216L185.697 85.48V82.664C184.332 79.592 183.18 78.0133 182.241 77.928H175.201C172.556 79.0373 170.721 80.4027 169.697 82.024V83.304C169.697 83.56 170.038 83.8587 170.721 84.2H175.457C176.481 85.0533 177.036 85.48 177.121 85.48C177.121 88.04 174.988 90.728 170.721 93.544L169.697 94.696V97.64H170.721C172.684 96.0187 174.902 94.7813 177.377 93.928H179.937C180.278 93.928 180.705 94.312 181.217 95.08V97.64C180.022 99.8587 176.182 103.827 169.697 109.544V134.12C168.246 138.131 166.966 140.264 165.857 140.52C164.662 140.52 163.169 138.6 161.377 134.76V114.28H159.841C156.342 116.157 153.697 117.437 151.905 118.12C151.564 118.12 150.454 117.096 148.577 115.048V113.64C149.516 111.251 152.929 108.563 158.817 105.576C159.073 105.576 159.926 104.765 161.377 103.144V97H159.201L146.785 102.76L145.377 104.936V113L144.097 115.304V129.64C143.5 131.091 142.262 132.584 140.385 134.12H138.977C138.636 134.12 137.996 133.48 137.057 132.2V123.24L138.337 120.424V115.048L139.617 112.104V106.6L141.025 103.784V100.2L142.817 95.336V91.24C143.67 89.8747 144.31 87.4 144.737 83.816L147.041 79.72C147.041 79.1227 148.833 77.2027 152.417 73.96C152.758 73.96 153.185 74.3867 153.697 75.24V76.52C151.393 79.6773 149.473 83.6453 147.937 88.424V91.88L147.297 92.904V93.928H148.961C149.388 93.5013 153.014 91.4533 159.841 87.784C160.865 81.7253 161.846 77.8853 162.785 76.264V60.52H159.201C157.75 61.288 155.788 61.8427 153.313 62.184C150.753 63.208 148.449 63.848 146.401 64.104L142.177 65.64H141.025C140.684 65.64 140.001 65 138.977 63.72C138.977 61.7573 146.913 58.7707 162.785 54.76V52.456L161.377 50.28V42.984L160.097 40.808V38.76C160.097 38.4187 160.524 37.992 161.377 37.48ZM192.097 40.808H201.057L204.001 41.96H208.097C211.169 43.4107 212.876 44.8187 213.217 46.184L213.857 47.08V49C211.894 54.5467 209.974 57.32 208.097 57.32C208.097 57.4907 208.012 57.576 207.841 57.576C206.561 57.576 204.172 55.784 200.673 52.2C198.454 50.3227 196.662 49.1707 195.297 48.744C193.505 47.72 191.798 46.0987 190.177 43.88V42.6C190.177 42.2587 190.817 41.6613 192.097 40.808ZM108.385 53.48H121.057C122.593 54.248 124.513 54.8027 126.817 55.144C128.268 55.9973 129.59 57.1493 130.785 58.6V61.288C130.102 62.568 129.206 63.592 128.097 64.36H126.177C124.47 62.9947 119.692 61.288 111.841 59.24C110.22 59.24 108.385 57.96 106.337 55.4C106.337 55.144 107.02 54.504 108.385 53.48ZM116.577 79.72H120.417C120.673 79.72 121.74 80.8293 123.617 83.048C121.313 85.9493 118.625 87.8693 115.553 88.808C113.59 90.088 111.5 91.24 109.281 92.264C108.428 92.264 107.02 91.112 105.057 88.808V88.168C106.678 85.0107 109.708 82.6213 114.145 81C114.401 81 115.212 80.5733 116.577 79.72ZM120.417 110.44C120.758 110.44 121.398 111.08 122.337 112.36V114.28C120.374 118.291 118.582 121.491 116.961 123.88C115.34 127.464 113.078 130.451 110.177 132.84H109.025C108.684 132.84 107.788 131.987 106.337 130.28V127.08C111.457 117.693 116.15 112.147 120.417 110.44ZM297 4.45599H311.08L315.944 6.12C318.675 7.31466 320.851 9.36266 322.472 12.264L324.52 17.384V38.504L323.24 41.32V86.76L324.52 90.216V129.384C322.216 135.016 319.827 138.216 317.352 138.984H314.92C310.568 137.021 305.832 132.2 300.712 124.52L297 116.456V114.024C295.72 114.024 295.08 113.811 295.08 113.384V112.104H295.592C296.104 112.104 296.36 112.531 296.36 113.384H297.256L299.304 112.36C302.035 113.043 304.765 114.195 307.496 115.816H308.52V70.504L309.16 69.48V67.304H309.8V65.384L310.44 64.36V40.424L311.592 37.48V27.624L313 25.32V13.928C313 13.0747 310.739 11.8373 306.216 10.216H289.704L286.76 11.624H281.896C278.227 12.904 274.6 14.3973 271.016 16.104C268.627 17.4693 265.555 19.816 261.8 23.144H261.16C260.819 23.144 260.392 22.7173 259.88 21.864C266.792 14.184 272.125 10.088 275.88 9.576C276.392 9.23466 277.757 8.76533 279.976 8.16799C279.976 7.91199 280.104 7.784 280.36 7.784H283.304L286.12 6.504H291.496C292.179 6.07733 294.013 5.39466 297 4.45599ZM229.16 23.144H230.44C232.744 23.8267 234.664 26.344 236.2 30.696V33.64L238.12 38.504V68.456L236.2 73.32V85.224L234.92 88.168V99.304L233.64 101.48V108.904C233.043 110.355 231.763 111.848 229.8 113.384H228.52C226.984 112.189 225.917 110.909 225.32 109.544V100.456L226.472 98.28V90.984L227.88 88.168V80.104L229.16 77.288V66.024L231.08 61.288V39.4L229.16 34.664V31.08L226.472 26.984V26.216C227.155 24.936 228.051 23.912 229.16 23.144ZM261.16 32.744H262.44L265.896 34.024H271.4C272.339 34.1093 274.045 35.6027 276.52 38.504V40.424C275.24 42.3013 274.173 43.368 273.32 43.624H272.68C270.632 41.064 269.437 39.784 269.096 39.784C268.328 39.784 267.731 39.5707 267.304 39.144H264.36L262.184 37.864H257.832C257.576 37.864 257.192 37.3947 256.68 36.456V35.816C257.533 34.4507 259.027 33.4267 261.16 32.744ZM285.352 48.104H286.76C287.016 48.104 288.04 49.1707 289.832 51.304C289.832 52.328 286.888 55.4 281 60.52C277.245 62.9093 274.045 64.5307 271.4 65.384V72.936C270.035 76.6907 268.968 80.6587 268.2 84.84C267.773 85.1813 266.792 87.2293 265.256 90.984C262.867 96.2747 260.605 99.432 258.472 100.456H257.832C257.235 100.2 256.637 99.176 256.04 97.384C256.381 96.7867 256.808 95.4213 257.32 93.288C259.453 90.3867 262.227 84.1573 265.64 74.6V65.64C265.64 65.384 265.085 64.872 263.976 64.104H262.824L247.592 69.864H247.08C246.739 69.864 246.099 69.1813 245.16 67.816V65.384C245.16 64.5307 247.08 63.848 250.92 63.336C252.627 62.2267 255.272 61.0747 258.856 59.88C262.099 57.9173 265.128 56.68 267.944 56.168C270.589 54.632 274.728 52.7973 280.36 50.664C280.36 50.408 282.024 49.5547 285.352 48.104ZM266.28 62.696V63.336H266.92V62.696H266.28ZM278.44 66.024H279.08C280.531 66.4507 281.811 67.944 282.92 70.504V74.216L279.976 82.664C279.72 82.664 279.592 82.792 279.592 83.048V84.84C279.592 85.1813 279.933 85.5227 280.616 85.864H282.536L294.824 80.36C294.824 80.2747 295.763 79.72 297.64 78.696H303.656C305.021 79.2933 305.96 80.4027 306.472 82.024C304.765 86.5467 303.187 88.808 301.736 88.808C299.603 90.5147 296.189 92.008 291.496 93.288C291.411 93.288 289.149 93.9707 284.712 95.336H277.8C276.349 94.7387 275.027 93.7147 273.832 92.264C273.832 91.8373 273.448 91.1547 272.68 90.216V85.864L277.16 75.88V71.784C275.624 71.784 274.515 71.144 273.832 69.864C275.368 67.9013 276.904 66.6213 278.44 66.024ZM278.44 86.504V87.144H279.592V86.504H278.44ZM287.4 99.816H294.44C298.28 101.608 300.2 103.144 300.2 104.424C298.067 109.288 296.36 111.72 295.08 111.72V112.104H292.52L289.064 110.184H274.856L272.04 111.336H269.096C261.587 113.981 257.235 115.304 256.04 115.304C256.04 115.645 255.827 115.816 255.4 115.816H251.56C251.304 115.816 250.323 114.877 248.616 113C248.957 112.147 250.451 111.293 253.096 110.44C260.264 107.624 265.597 105.747 269.096 104.808L277.16 101.864H282.536L287.4 99.816Z" fill="#E17B7B"/>
</svg>
